<mxfile host="app.diagrams.net" agent="Mozilla/5.0 (Windows NT 10.0; Win64; x64) AppleWebKit/537.36 (KHTML, like Gecko) Chrome/140.0.0.0 Safari/537.36" version="28.2.3" pages="3">
  <diagram name="Page-1" id="me2eqt4FkOVerrTwLW2-">
    <mxGraphModel dx="1737" dy="2037" grid="1" gridSize="10" guides="1" tooltips="1" connect="1" arrows="1" fold="1" page="1" pageScale="1" pageWidth="850" pageHeight="1100" math="0" shadow="0">
      <root>
        <mxCell id="0" />
        <mxCell id="1" parent="0" />
        <mxCell id="0zJXh3fM9TytNHWtSzTf-4" value="" style="edgeStyle=orthogonalEdgeStyle;rounded=0;orthogonalLoop=1;jettySize=auto;html=1;" edge="1" parent="1" source="0zJXh3fM9TytNHWtSzTf-2" target="0zJXh3fM9TytNHWtSzTf-3">
          <mxGeometry relative="1" as="geometry" />
        </mxCell>
        <mxCell id="0zJXh3fM9TytNHWtSzTf-2" value="" style="ellipse;whiteSpace=wrap;html=1;fillColor=#e51400;fontColor=#ffffff;strokeColor=#B20000;" vertex="1" parent="1">
          <mxGeometry x="365" y="-10" width="120" height="80" as="geometry" />
        </mxCell>
        <mxCell id="0zJXh3fM9TytNHWtSzTf-6" value="" style="edgeStyle=orthogonalEdgeStyle;rounded=0;orthogonalLoop=1;jettySize=auto;html=1;" edge="1" parent="1" source="0zJXh3fM9TytNHWtSzTf-3" target="0zJXh3fM9TytNHWtSzTf-5">
          <mxGeometry relative="1" as="geometry" />
        </mxCell>
        <mxCell id="0zJXh3fM9TytNHWtSzTf-3" value="" style="ellipse;whiteSpace=wrap;html=1;fillColor=#e51400;fontColor=#ffffff;strokeColor=#B20000;" vertex="1" parent="1">
          <mxGeometry x="365" y="150" width="120" height="80" as="geometry" />
        </mxCell>
        <mxCell id="0zJXh3fM9TytNHWtSzTf-8" value="" style="edgeStyle=orthogonalEdgeStyle;rounded=0;orthogonalLoop=1;jettySize=auto;html=1;" edge="1" parent="1" source="0zJXh3fM9TytNHWtSzTf-5" target="0zJXh3fM9TytNHWtSzTf-7">
          <mxGeometry relative="1" as="geometry" />
        </mxCell>
        <mxCell id="0zJXh3fM9TytNHWtSzTf-5" value="BUILD" style="ellipse;whiteSpace=wrap;html=1;fillColor=#e51400;fontColor=#ffffff;strokeColor=#B20000;" vertex="1" parent="1">
          <mxGeometry x="365" y="310" width="120" height="80" as="geometry" />
        </mxCell>
        <mxCell id="0zJXh3fM9TytNHWtSzTf-10" value="" style="edgeStyle=orthogonalEdgeStyle;rounded=0;orthogonalLoop=1;jettySize=auto;html=1;" edge="1" parent="1" source="0zJXh3fM9TytNHWtSzTf-7" target="0zJXh3fM9TytNHWtSzTf-9">
          <mxGeometry relative="1" as="geometry" />
        </mxCell>
        <mxCell id="0zJXh3fM9TytNHWtSzTf-7" value="TEST" style="ellipse;whiteSpace=wrap;html=1;fillColor=#e51400;fontColor=#ffffff;strokeColor=#B20000;" vertex="1" parent="1">
          <mxGeometry x="365" y="470" width="120" height="80" as="geometry" />
        </mxCell>
        <mxCell id="0zJXh3fM9TytNHWtSzTf-12" value="" style="edgeStyle=orthogonalEdgeStyle;rounded=0;orthogonalLoop=1;jettySize=auto;html=1;" edge="1" parent="1" source="0zJXh3fM9TytNHWtSzTf-9" target="0zJXh3fM9TytNHWtSzTf-11">
          <mxGeometry relative="1" as="geometry" />
        </mxCell>
        <mxCell id="0zJXh3fM9TytNHWtSzTf-9" value="RELEASE" style="ellipse;whiteSpace=wrap;html=1;fillColor=#e51400;fontColor=#ffffff;strokeColor=#B20000;" vertex="1" parent="1">
          <mxGeometry x="365" y="630" width="120" height="80" as="geometry" />
        </mxCell>
        <mxCell id="0zJXh3fM9TytNHWtSzTf-14" value="" style="edgeStyle=orthogonalEdgeStyle;rounded=0;orthogonalLoop=1;jettySize=auto;html=1;" edge="1" parent="1" source="0zJXh3fM9TytNHWtSzTf-11" target="0zJXh3fM9TytNHWtSzTf-13">
          <mxGeometry relative="1" as="geometry" />
        </mxCell>
        <mxCell id="0zJXh3fM9TytNHWtSzTf-11" value="DEPLOY" style="ellipse;whiteSpace=wrap;html=1;fillColor=#e51400;fontColor=#ffffff;strokeColor=#B20000;" vertex="1" parent="1">
          <mxGeometry x="365" y="790" width="120" height="80" as="geometry" />
        </mxCell>
        <mxCell id="0zJXh3fM9TytNHWtSzTf-16" value="" style="edgeStyle=orthogonalEdgeStyle;rounded=0;orthogonalLoop=1;jettySize=auto;html=1;" edge="1" parent="1" source="0zJXh3fM9TytNHWtSzTf-13" target="0zJXh3fM9TytNHWtSzTf-15">
          <mxGeometry relative="1" as="geometry" />
        </mxCell>
        <mxCell id="0zJXh3fM9TytNHWtSzTf-13" value="&lt;font face=&quot;Georgia&quot;&gt;OPERATE&lt;/font&gt;" style="ellipse;whiteSpace=wrap;html=1;fillColor=#e51400;fontColor=#ffffff;strokeColor=#B20000;" vertex="1" parent="1">
          <mxGeometry x="365" y="950" width="120" height="80" as="geometry" />
        </mxCell>
        <mxCell id="0zJXh3fM9TytNHWtSzTf-15" value="&lt;h4&gt;MONITER&lt;/h4&gt;" style="ellipse;whiteSpace=wrap;html=1;fillColor=#e51400;fontColor=#ffffff;strokeColor=#B20000;" vertex="1" parent="1">
          <mxGeometry x="365" y="1110" width="120" height="80" as="geometry" />
        </mxCell>
        <mxCell id="0zJXh3fM9TytNHWtSzTf-17" value="PLAN" style="text;html=1;align=center;verticalAlign=middle;whiteSpace=wrap;rounded=0;" vertex="1" parent="1">
          <mxGeometry x="395" y="15" width="60" height="30" as="geometry" />
        </mxCell>
        <mxCell id="0zJXh3fM9TytNHWtSzTf-19" value="" style="edgeStyle=orthogonalEdgeStyle;rounded=0;orthogonalLoop=1;jettySize=auto;html=1;" edge="1" parent="1" source="0zJXh3fM9TytNHWtSzTf-18" target="0zJXh3fM9TytNHWtSzTf-5">
          <mxGeometry relative="1" as="geometry" />
        </mxCell>
        <mxCell id="0zJXh3fM9TytNHWtSzTf-18" value="DEVELOP" style="text;html=1;align=center;verticalAlign=middle;resizable=0;points=[];autosize=1;strokeColor=none;fillColor=none;" vertex="1" parent="1">
          <mxGeometry x="385" y="175" width="80" height="30" as="geometry" />
        </mxCell>
      </root>
    </mxGraphModel>
  </diagram>
  <diagram id="Bj2CbDCX6aouVzMzsrln" name="Page-2">
    <mxGraphModel dx="632" dy="341" grid="1" gridSize="10" guides="1" tooltips="1" connect="1" arrows="1" fold="1" page="1" pageScale="1" pageWidth="850" pageHeight="1100" math="0" shadow="0">
      <root>
        <mxCell id="0" />
        <mxCell id="1" parent="0" />
        <mxCell id="Jo5OR4VEXJvI6dKOBfxq-2" value="" style="image;image=img/lib/atlassian/Atlassian_Logo.svg;html=1;" vertex="1" parent="1">
          <mxGeometry x="360" y="120" width="140" height="130" as="geometry" />
        </mxCell>
        <mxCell id="Jo5OR4VEXJvI6dKOBfxq-3" value="PUMA CAFE" style="text;html=1;align=center;verticalAlign=middle;whiteSpace=wrap;rounded=0;" vertex="1" parent="1">
          <mxGeometry x="400" y="260" width="80" height="30" as="geometry" />
        </mxCell>
      </root>
    </mxGraphModel>
  </diagram>
  <diagram id="sR6sjq1-z2GaPh8UbhDr" name="Page-3">
    <mxGraphModel dx="906" dy="489" grid="1" gridSize="10" guides="1" tooltips="1" connect="1" arrows="1" fold="1" page="1" pageScale="1" pageWidth="850" pageHeight="1100" math="0" shadow="0">
      <root>
        <mxCell id="0" />
        <mxCell id="1" parent="0" />
        <mxCell id="0Htbr6UOZlzpYhqv8E-S-1" value="" style="shape=image;verticalLabelPosition=bottom;verticalAlign=top;imageAspect=0;image=https://cdn.dribbble.com/userupload/43791971/file/original-47c8d7630a5efb68354f911ee4275f8a.jpg?resize=752x&amp;vertical=center;" vertex="1" parent="1">
          <mxGeometry x="160" y="40" width="520" height="440" as="geometry" />
        </mxCell>
      </root>
    </mxGraphModel>
  </diagram>
</mxfile>
